<svg width="31" height="22" viewBox="0 0 31 22" fill="none" xmlns="http://www.w3.org/2000/svg">
<path d="M29.7419 3.56896L14.4768 0.305519C14.1642 0.244298 13.8402 0.28437 13.552 0.419908C13.2637 0.555446 13.0262 0.779388 12.8739 1.05918L7.03413 11.806C6.66016 11.4673 6.24807 11.1733 5.80615 10.9299C3.62728 9.74594 1.21926 9.96358 0.429774 11.4164C-0.359707 12.8693 0.767805 15.0081 2.94668 16.1921C5.12555 17.3761 7.53357 17.1585 8.32306 15.7056L13.5434 6.09886L25.7432 8.73449L21.6191 16.324C21.2454 15.985 20.8334 15.6908 20.3914 15.4475C18.2125 14.2635 15.8045 14.4812 15.015 15.934C14.2255 17.3869 15.353 19.5257 17.5319 20.7097C19.7108 21.8937 22.1186 21.6765 22.9083 20.2232L30.7718 5.75221C30.8838 5.54558 30.9456 5.31547 30.9522 5.08052C30.9588 4.84557 30.91 4.61236 30.8097 4.39978C30.7094 4.1872 30.5605 4.00122 30.375 3.85688C30.1895 3.71254 29.9726 3.61391 29.7419 3.56896Z" fill="#231F20"/>
</svg>
