<svg width="23" height="32" viewBox="0 0 23 32" fill="none" xmlns="http://www.w3.org/2000/svg">
<path d="M12.1164 1.03034L1.339 12.3229C1.12308 12.5571 0.987474 12.854 0.951896 13.1706C0.916318 13.4871 0.982622 13.8068 1.14117 14.083L7.23536 24.6876C6.75099 24.8287 6.28468 25.0257 5.84584 25.2746C3.69579 26.5102 2.61956 28.6753 3.44343 30.1089C4.2673 31.5426 6.67983 31.7028 8.82987 30.4672C10.9799 29.2316 12.0562 27.0665 11.2323 25.6329L5.78455 16.1532L14.4212 7.14261L18.725 14.6317C18.2405 14.7724 17.774 14.9692 17.3352 15.2182C15.1852 16.4538 14.109 18.6189 14.9328 20.0526C15.7567 21.4862 18.1692 21.6464 20.3193 20.4108C22.4693 19.1752 23.5458 17.0105 22.7217 15.5765L14.5156 1.29695C14.3983 1.09327 14.2347 0.920061 14.038 0.791354C13.8413 0.662647 13.6171 0.582052 13.3835 0.556092C13.1499 0.530134 12.9134 0.559538 12.6933 0.641929C12.4732 0.724319 12.2755 0.857379 12.1164 1.03034Z" fill="#231F20"/>
</svg>
